<svg xmlns="http://www.w3.org/2000/svg" width="24" height="24" fill="none" viewBox="0 0 24 24">
    <path fill="#000" d="M12 24c-.844 0-1.659-.308-2.292-.866-.627-.552-1.037-1.308-1.158-2.134H.5c-.133 0-.26-.053-.354-.146C.053 20.76 0 20.633 0 20.5c0-.133.053-.26.146-.354C.24 20.053.367 20 .5 20c.328 0 .653-.065.957-.19.303-.126.579-.31.81-.542.233-.232.417-.508.543-.811.125-.304.19-.629.19-.957V12c.006-1.786.542-3.53 1.538-5.011.997-1.482 2.41-2.635 4.062-3.314.19-.76.627-1.434 1.243-1.919.615-.484 1.374-.75 2.157-.756.785-.003 1.549.26 2.166.745.617.486 1.052 1.166 1.234 1.93 1.651.68 3.065 1.832 4.061 3.314C20.458 8.471 20.993 10.214 21 12v5.5c0 .663.263 1.299.732 1.768.47.469 1.105.732 1.768.732.133 0 .26.053.354.146.093.094.146.221.146.354 0 .133-.053.26-.146.354-.094.093-.221.146-.354.146h-8.05c-.12.826-.53 1.583-1.157 2.135-.633.558-1.449.865-2.293.865zm-2.449-3c.115.565.421 1.073.868 1.438.446.365 1.005.565 1.582.565.577 0 1.136-.2 1.582-.565.447-.365.753-.873.868-1.438h-4.9zM12 2c-.596.003-1.17.218-1.623.605-.452.388-.752.924-.846 1.512-.013.088-.05.171-.107.24-.056.07-.13.122-.213.153-1.526.572-2.842 1.595-3.773 2.933C4.508 8.78 4.006 10.37 4 12v5.5c.001.466-.091.927-.272 1.357-.181.43-.447.818-.781 1.143h18.105c-.334-.325-.6-.714-.78-1.143-.18-.43-.273-.891-.272-1.357V12c-.006-1.63-.509-3.22-1.44-4.558-.932-1.338-2.248-2.36-3.775-2.932-.084-.031-.157-.084-.213-.153-.057-.069-.093-.152-.107-.24-.088-.59-.385-1.13-.838-1.518C13.174 2.21 12.597 1.998 12 2z"/>
</svg>
