<svg xmlns="http://www.w3.org/2000/svg" width="14" height="14" viewBox="0 0 14 14">
    <path id="Icon_material-date-range" fill="#fff" d="M9.167 9.3H7.611v1.4h1.556zm3.111 0h-1.556v1.4h1.556zm3.111 0h-1.556v1.4h1.556zm1.556-4.9h-.778V3h-1.556v1.4H8.389V3H6.833v1.4h-.777a1.476 1.476 0 0 0-1.548 1.4L4.5 15.6A1.483 1.483 0 0 0 6.056 17h10.888a1.488 1.488 0 0 0 1.556-1.4V5.8a1.488 1.488 0 0 0-1.556-1.4zm0 11.2H6.056V7.9h10.888z" data-name="Icon material-date-range" transform="translate(-4.5 -3)"/>
</svg>
