<svg xmlns="http://www.w3.org/2000/svg" id="Group_6" width="19.854" height="9.978" data-name="Group 6" viewBox="0 0 19.854 9.978">
    <defs>
        <style>
            .cls-1{fill:#fff}
        </style>
    </defs>
    <path id="Fill_31" d="M11.211 4.211L7.318.318A1.032 1.032 0 0 0 5.911.242a.993.993 0 0 0-.039 1.442l1.765 1.765a.316.316 0 0 1-.224.54H1.05a1.032 1.032 0 0 0-1.05.94.994.994 0 0 0 .994 1.048h6.42a.316.316 0 0 1 .224.54L5.912 8.242a1.032 1.032 0 0 0-.077 1.406.994.994 0 0 0 1.442.039l3.933-3.933a1.091 1.091 0 0 0 0-1.543" class="cls-1" data-name="Fill 31" transform="translate(8.324)"/>
    <path id="Fill_32" d="M2.14 0H.994a.994.994 0 0 0 0 1.988H2.14A.994.994 0 0 0 2.14 0" class="cls-1" data-name="Fill 32" transform="translate(3.495 3.989)"/>
    <path id="Fill_33" d="M1.1 0H.994a.994.994 0 0 0 0 1.988H1.1A.994.994 0 0 0 1.1 0" class="cls-1" data-name="Fill 33" transform="translate(0 3.989)"/>
</svg>
