<svg xmlns="http://www.w3.org/2000/svg" id="home-water" width="13" height="13" viewBox="0 0 13 13">
    <path id="Retângulo_1526" fill="none" d="M0 0H13V13H0z" data-name="Retângulo 1526"/>
    <g id="Grupo_35" data-name="Grupo 35">
        <path id="Caminho_47" fill="#fff" d="M12.829 11.7a5.2 5.2 0 0 0-5.788-.911l-1.553.734a4.1 4.1 0 0 1-4.566-.7.542.542 0 0 0-.76.772A5.065 5.065 0 0 0 3.713 13a5.235 5.235 0 0 0 2.236-.5l1.551-.732a4.1 4.1 0 0 1 4.566.7.542.542 0 0 0 .76-.772zm-9.159-.867h.1a3.112 3.112 0 0 0 1.1-.227V8.125a1.624 1.624 0 1 1 3.247 0v1.2a6.165 6.165 0 0 1 3.789.462V4.9a.985.985 0 0 0-.361-.762L6.495 0 1.443 4.136a.985.985 0 0 0-.361.762v4.78a1.625 1.625 0 0 1 .6.369 2.882 2.882 0 0 0 1.988.786z" data-name="Caminho 47"/>
    </g>
</svg>
