<svg xmlns="http://www.w3.org/2000/svg" width="13.771" height="13.771" viewBox="0 0 13.771 13.771">
    <path id="Caminho_108" fill="#fff" d="M11.447 4.476l.947-1.807-1.2-1.2-1.812.941a3.083 3.083 0 0 0-.947-.344L7.746 0H6.025l-.689 1.98a3.6 3.6 0 0 0-.861.344l-1.807-.947-1.291 1.291.947 1.807a3.6 3.6 0 0 0-.344.861L0 6.025v1.721l1.98.689c.086.344.258.6.344.947l-.947 1.807 1.2 1.2 1.807-.947a3.083 3.083 0 0 0 .947.344l.689 1.98h1.726l.689-1.98c.344-.086.6-.258.947-.344l1.807.947 1.2-1.2-.947-1.807a3.083 3.083 0 0 0 .344-.947l1.98-.689V6.025l-1.98-.689a3.6 3.6 0 0 0-.339-.86zM6.886 9.468A2.536 2.536 0 0 1 4.3 6.886 2.536 2.536 0 0 1 6.886 4.3a2.536 2.536 0 0 1 2.582 2.586 2.536 2.536 0 0 1-2.582 2.582z" data-name="Caminho 108"/>
</svg>
