<svg xmlns="http://www.w3.org/2000/svg" width="47.136" height="37.489" viewBox="0 0 47.136 37.489">
    <defs>
        <style>
            .cls-2{fill:#fec22d}.cls-3{fill:#fff}
        </style>
    </defs>
    <g id="Grupo_3454" data-name="Grupo 3454" transform="translate(0 .135)">
        <path id="Caminho_1679" fill="#528e20" d="M594.746 394.229a1.542 1.542 0 0 0-.466-1.286 1.628 1.628 0 0 0-1.422-.71h-19.862a3.286 3.286 0 0 0-3.019 2.179 8.286 8.286 0 0 1-1.207-.592 4.669 4.669 0 0 1 4.321-2.936h19.551a3.246 3.246 0 0 1 3.187 2.03c.027.06.051.121.077.181l.154.867v12.09c0 .164.01.327.016.491-.006.2-.017.393-.017.589 0 2.737.018 5.473-.008 8.21a3.163 3.163 0 0 1-3.139 3.173c-.885.026-1.771 0-2.656 0a2.543 2.543 0 0 1 .512-1.294c.605 0 1.21.011 1.815 0a2.243 2.243 0 0 0 1.342-.376 2.151 2.151 0 0 0 .843-1.832c.009-.686 0-1.372 0-2.058l-.018-4.116c.01-.147.028-.294.028-.441v-13.041c0-.114-.011-.229-.018-.343l-.014-.785z" data-name="Caminho 1679" transform="translate(-568.77 -384.213)"/>
        <g id="Grupo_3453" data-name="Grupo 3453" transform="translate(3.469)">
            <path id="Caminho_1677" d="M655.988 380.28c1.805-1.362 3.642-2.678 5.544-3.9a62.1 62.1 0 0 1 9.959-5.33 20.214 20.214 0 0 1 3.561-1.156 4.322 4.322 0 0 1 1.605-.113 1.138 1.138 0 0 1 .861 1.827 6.039 6.039 0 0 1-1.4 1.518c-2.02 1.743-4.145 3.36-6.143 5.128-.964.853-1.918 1.718-2.851 2.605-.852.81-1.678 1.649-2.5 2.492a71.4 71.4 0 0 0-5.166 5.959c-.642.824-1.284 1.65-1.854 2.527a12.986 12.986 0 0 0-1.53 2.288c-.323.314-.481.749-.78 1.08-.006-.186-.018-.373-.018-.559v-13.788a1.634 1.634 0 0 0 .712-.578z" class="cls-2" data-name="Caminho 1677" transform="translate(-634.069 -369.877)"/>
            <path id="Caminho_1676" d="M596.773 429.508a9.091 9.091 0 0 1-.975 1.093 3.778 3.778 0 0 1-4.263.493 8.8 8.8 0 0 1-2.233-1.577c-.413-.443-.783-.926-1.238-1.33a1.649 1.649 0 0 1-.169-.235.856.856 0 0 0-.92-.471c-1.456.026-2.912.008-4.369.011-.932 0-1.865.012-2.8.018a.054.054 0 0 1-.04-.03.912.912 0 0 1 .526-.056h6.615a.919.919 0 0 0 .551-.081c-.336-.392-.5-.871-.91-1.16a2.148 2.148 0 0 0-.447-.8c-.793-1.289-1.483-2.633-2.185-3.972a1.969 1.969 0 0 0-.266-.68c-.873-1.847-1.673-3.726-2.384-5.641a4.247 4.247 0 0 1 .189-3.87 5.183 5.183 0 0 1 1.324-1.5c.234-.175.472-.346.708-.519a6.115 6.115 0 0 1 2.944-.635 3.819 3.819 0 0 1 3.291 1.9c.814 1.327 1.514 2.716 2.231 4.1.08.155.121.338.286.435.036-.016.076-.02.092-.042.107-.145.211-.291.311-.441a46.7 46.7 0 0 1 5.431-6.641c1.337-1.375 2.761-2.655 4.213-3.905.006.115.018.229.018.343v13.041c0 .147-.018.294-.027.441-.079.123-.166.242-.237.37a67.732 67.732 0 0 0-3.622 7.549.793.793 0 0 0-.124.465 2.546 2.546 0 0 0-.512 1.294 2.452 2.452 0 0 0-.281.711 12.126 12.126 0 0 0-.728 1.322z" class="cls-2" data-name="Caminho 1676" transform="translate(-579.768 -394.175)"/>
        </g>
        <path id="Caminho_1678" d="M575.949 422.99a.052.052 0 0 0 .04.03 1.492 1.492 0 0 0 1.333.678c2.307.013 4.614 0 6.921 0 .455.4.825.887 1.238 1.33-1.164.005-2.329.013-3.493.015h-4.38a3.3 3.3 0 0 1-3.129-1.826 7.059 7.059 0 0 1-.288-2.47q.007-9.392 0-18.784a8.209 8.209 0 0 1 .254-2.672c.027-.041.058-.079.082-.122a3.151 3.151 0 0 1 3-1.752c1.934.013 3.869 0 5.8 0l14.656-.005a1.541 1.541 0 0 1 .466 1.286h-20.844a1.954 1.954 0 0 0-2.037 1.37 1.294 1.294 0 0 0-.122.717v20.76a1.787 1.787 0 0 0 .119.867c.08.229.124.474.384.578z" class="cls-3" data-name="Caminho 1678" transform="translate(-572.48 -388.686)"/>
        <path id="Caminho_1680" d="M641.19 433.164a11.392 11.392 0 0 1 1.342-2.007c.007.147.021.294.021.44 0 3.9.015 7.8-.006 11.692a4.672 4.672 0 0 1-2.028 3.986 4.482 4.482 0 0 1-2.52.854c-1.441.032-2.883 0-4.324-.012a12.051 12.051 0 0 1 .731-1.322c1.13 0 2.26-.011 3.389.01a3.462 3.462 0 0 0 3.422-3.431c-.045-3.011-.012-6.022-.013-9.033l-.014-1.177z" class="cls-3" data-name="Caminho 1680" transform="translate(-613.201 -411.784)"/>
        <path id="Caminho_1711" fill="#1f602e" d="M579.586 474.377l6.139-.009c.415.288.574.767.911 1.159a.919.919 0 0 1-.551.081h-6.615a.912.912 0 0 0-.526.056c-.26-.1-.3-.35-.38-.575.388-.167.636-.534 1.022-.712z" data-name="Caminho 1711" transform="translate(-575.475 -441.364)"/>
    </g>
</svg>
