<svg
  version="1.1"
  xmlns="http://www.w3.org/2000/svg"
  xmlns:xlink="http://www.w3.org/1999/xlink"
  x="0px"
  y="0px"
  viewBox="0 0 507.6 344"
  style="enable-background: new 0 0 507.6 344"
  xml:space="preserve"
>
  <style type="text/css">
    .st0 {
      fill-rule: evenodd;
      clip-rule: evenodd;
      fill: #ffffff;
    }
    .st1 {
      fill-rule: evenodd;
      clip-rule: evenodd;
      fill: #a0003c;
    }
    .st2 {
      fill-rule: evenodd;
      clip-rule: evenodd;
      fill: #006cb7;
    }
    .st3 {
      fill-rule: evenodd;
      clip-rule: evenodd;
      fill: #ebaf23;
    }
    .st4 {
      fill-rule: evenodd;
      clip-rule: evenodd;
      fill: #f06e23;
    }
    .st5 {
      fill-rule: evenodd;
      clip-rule: evenodd;
      fill: #aa509b;
    }
    .st6 {
      fill-rule: evenodd;
      clip-rule: evenodd;
      fill: #ed1c24;
    }
    .st7 {
      fill-rule: evenodd;
      clip-rule: evenodd;
      fill: #00b8ec;
    }
    .st8 {
      fill-rule: evenodd;
      clip-rule: evenodd;
      fill: #75b84d;
    }
    .st9 {
      fill: #ffffff;
    }
    .st10 {
      fill: #0363ad;
    }
    .st11 {
      fill: #e20613;
    }
    .st12 {
      fill: #e42528;
    }
    .st13 {
      fill: #75b84d;
    }
    .st14 {
      fill: #ebaf23;
    }
    .st15 {
      fill: #285aa5;
    }
    .st16 {
      fill: #a0003c;
    }
  </style>
  <g>
    <g>
      <path
        class="st0"
        d="M150.6,142.2c-5.6,10.1-8.8,21.8-8.8,34.2s3.2,24,8.8,34.2c0,9.2,0,18.4,0,27.6c-9.3,0-18.6,0-27.9,0c0-65.4,0-130.9,0-196.3L90.3,55.2V25l60.3-25C150.6,47.4,150.6,94.8,150.6,142.2"
      />
      <path
        class="st0"
        d="M61.7,142.6c12.1,0,22.6,6.3,28.6,15.8v36c-6,9.5-16.6,15.8-28.6,15.8c-18.7,0-33.8-15.1-33.8-33.8C27.9,157.7,43,142.6,61.7,142.6 M118.2,47.8c0,63.4,0,126.8,0,190.2c-9.3,0-18.6,0-27.9,0v-7c-8.6,4.5-18.3,7-28.6,7C27.6,238.1,0,210.4,0,176.4s27.6-61.7,61.7-61.7c10.3,0,20,2.5,28.6,7V59.4L118.2,47.8z"
      />
      <rect x="190.4" y="270.8" class="st1" width="63.4" height="10.9" />
      <rect x="317.3" y="270.8" class="st2" width="63.5" height="10.9" />
      <rect y="270.8" class="st3" width="63.5" height="10.9" />
      <rect x="63.5" y="270.8" class="st4" width="63.5" height="10.9" />
      <rect x="253.8" y="270.8" class="st5" width="63.5" height="10.9" />
      <rect x="126.9" y="270.8" class="st6" width="63.5" height="10.9" />
      <rect x="380.7" y="270.8" class="st7" width="63.5" height="10.9" />
      <rect x="444.2" y="270.8" class="st8" width="63.5" height="10.9" />
      <path class="st0" d="M0,249.1c169.2,0,338.4,0,507.6,0v21.7c-169.2,0-338.4,0-507.6,0V249.1z" />
      <path
        class="st0"
        d="M207.9,142.6c18.7,0,33.8,15.1,33.8,33.8c0,18.7-15.1,33.8-33.8,33.8c-18.7,0-33.8-15.1-33.8-33.8C174.1,157.7,189.2,142.6,207.9,142.6 M207.9,114.7c25.7,0,47.7,15.7,57,38c-2.6,7.4-4.1,15.4-4.1,23.7c0,8.3,1.5,16.3,4.1,23.7c-9.3,22.3-31.3,38-57,38c-34.1,0-61.7-27.6-61.7-61.7S173.8,114.7,207.9,114.7z"
      />
      <path
        class="st0"
        d="M326.9,142.6c18.7,0,33.8,15.1,33.8,33.8c0,18.7-15.1,33.8-33.8,33.8c-18.7,0-33.8-15.1-33.8-33.8C293.1,157.7,308.2,142.6,326.9,142.6 M326.9,114.7c25.7,0,47.7,15.7,57,38c-2.6,7.4-4.1,15.4-4.1,23.7c0,8.3,1.5,16.3,4.1,23.7c-9.3,22.3-31.3,38-57,38c-34.1,0-61.7-27.6-61.7-61.7S292.8,114.7,326.9,114.7z"
      />
      <path
        class="st0"
        d="M445.9,142.6c18.7,0,33.8,15.1,33.8,33.8c0,18.7-15.1,33.8-33.8,33.8c-18.7,0-33.8-15.1-33.8-33.8C412.1,157.7,427.2,142.6,445.9,142.6 M445.9,114.7c34.1,0,61.7,27.6,61.7,61.7s-27.6,61.7-61.7,61.7s-61.7-27.6-61.7-61.7S411.8,114.7,445.9,114.7z"
      />
      <polygon class="st9" points="177.1,98.3 186.5,76 182.9,76 177.1,91.1 171.3,76 167.7,76 " />
      <path
        class="st9"
        d="M217.7,96.4V76h-3.2v3.5c-0.2-0.2-0.4-0.5-0.6-0.7c-1.9-2.2-4.3-3.2-7.1-3.2c-2.8,0-5.2,1.1-7.1,3.2c-1.9,2.1-2.8,4.6-2.8,7.4c0,2.8,0.9,5.3,2.8,7.4c1.9,2.2,4.3,3.2,7.1,3.2c2.8,0,5.2-1.1,7.1-3.2c0.2-0.2,0.4-0.5,0.6-0.7v3.5L217.7,96.4L217.7,96.4z M214.5,86.2c0,2-0.7,3.7-2.1,5.2c-1.4,1.5-3.1,2.2-5.1,2.2s-3.7-0.7-5.1-2.2c-1.4-1.5-2.1-3.2-2.1-5.2s0.7-3.7,2.1-5.2c1.4-1.5,3.1-2.2,5.1-2.2s3.7,0.7,5.1,2.2C213.8,82.5,214.5,84.2,214.5,86.2z"
      />
      <path
        class="st9"
        d="M243,80.2V76c-0.6-0.3-1.3-0.4-2-0.4c-2.3,0-4,1.3-5,3.8l-0.1,0.8V76h-3.2v20.4h3.2V86.2c0-1.7,0.4-3.2,1.2-4.5c0.4-0.7,0.9-1.3,1.5-1.8s1.3-0.7,2.2-0.7C241.4,79.2,242.2,79.5,243,80.2"
      />
      <path
        class="st9"
        d="M271.2,84.7h-14.4c0.2-0.9,0.5-1.7,1-2.4c1.5-2.4,3.6-3.6,6.3-3.6c1.7,0,3.3,0.6,4.6,1.7C270,81.5,270.9,82.9,271.2,84.7 M274.6,85.7c0-2.8-1.1-5.2-3.2-7.3c-2.1-2-4.6-3-7.4-3c-2.9,0-5.4,1-7.5,3.1c-2.1,2.1-3.1,4.6-3.1,7.5c0,2.9,1,5.4,3.1,7.5c1,1,2.1,1.7,3.4,2.3s2.8,0.8,4.6,0.8c1.8,0,3.6-0.6,5.3-1.7c1.7-1.1,3-2.7,3.9-4.6H270c-0.7,1-1.6,1.7-2.7,2.2s-2.2,0.8-3.4,0.8c-1.7,0-3.3-0.6-4.7-1.7c-1.4-1.1-2.2-2.6-2.5-4.3h17.9L274.6,85.7L274.6,85.7z"
      />
      <path
        class="st9"
        d="M291.5,100.3V76h-3.2v24.3c0,2.3-0.7,3.6-2,4.2c-0.5,0.2-1.1,0.3-1.7,0.1c-0.6-0.1-1.1-0.4-1.5-0.8v3.1c0.6,0.4,1.4,0.6,2.4,0.7c1,0.1,1.9-0.1,2.8-0.6s1.6-1.2,2.3-2.3C291.2,103.7,291.5,102.2,291.5,100.3 M292,70.4c0-0.6-0.2-1.1-0.6-1.5s-0.9-0.6-1.5-0.6s-1.1,0.2-1.5,0.6c-0.4,0.4-0.6,0.9-0.6,1.5c0,0.6,0.2,1.1,0.6,1.5s0.9,0.6,1.5,0.6s1.1-0.2,1.5-0.6C291.8,71.5,292,71,292,70.4z"
      />
      <path
        class="st9"
        d="M326.5,86.1c0-2.9-1-5.4-3.1-7.5c-2.1-2.1-4.6-3.1-7.5-3.1s-5.4,1-7.5,3.1s-3.1,4.6-3.1,7.5c0,2.9,1,5.4,3.1,7.5c2.1,2.1,4.6,3.1,7.5,3.1c2.9,0,5.4-1,7.5-3.1C325.4,91.5,326.5,89,326.5,86.1 M323.2,86.1c0,2-0.7,3.7-2.2,5.2s-3.2,2.2-5.2,2.2s-3.8-0.7-5.2-2.2s-2.2-3.2-2.2-5.2c0-2,0.7-3.8,2.2-5.2c1.5-1.4,3.2-2.2,5.2-2.2s3.8,0.7,5.2,2.2C322.5,82.3,323.2,84.1,323.2,86.1z"
      />
      <path
        class="st9"
        d="M375.8,64.7v-3h-2.3c-2.3,0-3.9,0.6-4.9,1.7s-1.5,2.7-1.5,4.8V76H363v3h4.1v17.3h3.2V79h5.4v-3h-5.4v-8.8c0-0.7,0.2-1.3,0.5-1.8c0.3-0.5,1-0.7,2.1-0.7H375.8z"
      />
      <path
        class="st9"
        d="M408,96.4V76h-3.2v3.5c-0.2-0.2-0.4-0.5-0.6-0.7c-1.9-2.2-4.3-3.2-7.1-3.2s-5.2,1.1-7.1,3.2c-1.9,2.1-2.8,4.6-2.8,7.4c0,2.8,0.9,5.3,2.8,7.4c1.9,2.2,4.3,3.2,7.1,3.2s5.2-1.1,7.1-3.2c0.2-0.2,0.4-0.5,0.6-0.7v3.5L408,96.4L408,96.4z M404.7,86.2c0,2-0.7,3.7-2.1,5.2c-1.4,1.5-3.1,2.2-5.1,2.2s-3.7-0.7-5.1-2.2c-1.4-1.5-2.1-3.2-2.1-5.2s0.7-3.7,2.1-5.2c1.4-1.5,3.1-2.2,5.1-2.2s3.7,0.7,5.1,2.2C404,82.5,404.7,84.2,404.7,86.2z"
      />
      <path
        class="st9"
        d="M433.2,80.2V76c-0.6-0.3-1.3-0.4-2-0.4c-2.3,0-4,1.3-5,3.8l-0.1,0.8V76h-3.2v20.4h3.2V86.2c0-1.7,0.4-3.2,1.2-4.5c0.4-0.7,0.9-1.3,1.5-1.8s1.3-0.7,2.2-0.7C431.7,79.2,432.5,79.5,433.2,80.2"
      />
      <path
        class="st9"
        d="M470.8,96.3h3.2V83.6c0-2.3-0.6-4.2-1.7-5.7c-0.6-0.7-1.3-1.3-2.1-1.8s-2-0.7-3.4-0.7c-1.4,0-2.7,0.4-3.7,1.2c-1,0.7-1.8,1.6-2.4,2.7c-0.2-0.5-0.5-1-0.9-1.4c-0.6-0.7-1.3-1.3-2.1-1.8s-2-0.7-3.4-0.7c-1.4,0-2.7,0.4-3.7,1.2c-0.9,0.7-1.7,1.5-2.3,2.6v-3.3H445v20.4h3.2V85.8c0.2-1.7,0.6-3.1,1.3-4.2c0.5-0.9,1.2-1.6,2-2.1s1.7-0.8,2.7-0.8c1,0,1.7,0.2,2.1,0.4c1.3,0.8,2,2.3,2,4.4v12.7h3.2V83.6c0-0.3,0-0.5,0-0.8c0.1-0.4,0.3-0.8,0.5-1.1c0.5-0.9,1.2-1.6,2-2.1s1.7-0.8,2.7-0.8c1,0,1.7,0.2,2.1,0.4c1.3,0.8,2,2.3,2,4.4L470.8,96.3L470.8,96.3z"
      />
      <path
        class="st9"
        d="M507.6,96.4V76h-3.2v3.5c-0.2-0.2-0.4-0.5-0.6-0.7c-1.9-2.2-4.3-3.2-7.1-3.2s-5.2,1.1-7.1,3.2c-1.9,2.1-2.8,4.6-2.8,7.4c0,2.8,0.9,5.3,2.8,7.4c1.9,2.2,4.3,3.2,7.1,3.2s5.2-1.1,7.1-3.2c0.2-0.2,0.4-0.5,0.6-0.7v3.5L507.6,96.4L507.6,96.4z M504.4,86.2c0,2-0.7,3.7-2.1,5.2c-1.4,1.5-3.1,2.2-5.1,2.2s-3.7-0.7-5.1-2.2c-1.4-1.5-2.1-3.2-2.1-5.2s0.7-3.7,2.1-5.2c1.4-1.5,3.1-2.2,5.1-2.2s3.7,0.7,5.1,2.2C503.7,82.5,504.4,84.2,504.4,86.2z"
      />
    </g>
    <g>
      <g>
        <rect x="387.5" y="293.3" class="st10" width="120.1" height="50" />
        <g>
          <path
            class="st9"
            d="M407.5,314.7c-0.5-0.2-1-0.3-1.6-0.4c-0.6,0-1.3-0.1-2.1-0.1h-3.3l-2.8,13.6h2.9l1.2-5.5h0.9c0.5,0,0.8,0.1,1,0.3c0.2,0.3,0.3,0.7,0.4,1.3c0.1,0.3,0.1,0.5,0.1,0.6l0.7,3.2h3.1l-1.3-5.5c-0.1-0.6-0.4-0.9-0.8-1.1c0.9-0.1,1.6-0.4,2.2-0.9c0.8-0.6,1.1-1.5,1.1-2.7c0-0.8-0.2-1.4-0.5-1.8C408.4,315.2,408,314.9,407.5,314.7 M405.9,318.9c-0.2,0.3-0.4,0.5-0.7,0.6c-0.3,0.2-0.6,0.3-1,0.3c-0.4,0.1-0.7,0.1-1.1,0.1h-0.8l0.7-3.3h1c0.4,0,0.7,0,0.9,0c0.2,0,0.4,0.1,0.6,0.1c0.2,0.1,0.3,0.2,0.5,0.4c0.1,0.2,0.2,0.4,0.2,0.7C406.1,318.3,406.1,318.6,405.9,318.9"
          />
          <path
            class="st9"
            d="M417.4,314c-2.2,0-4.1,0.9-5.6,2.5c-0.7,0.8-1.2,1.7-1.6,2.7s-0.5,2.1-0.5,3.1c0,0.8,0.1,1.5,0.4,2.2c0.3,0.7,0.6,1.3,1.1,1.8c0.5,0.5,1,0.9,1.7,1.2c0.7,0.3,1.4,0.4,2.2,0.4c1.2,0,2.3-0.2,3.2-0.6c1-0.4,1.8-1,2.5-1.7c0.7-0.8,1.3-1.7,1.7-2.8s0.6-2.1,0.6-3.2c0-1.8-0.5-3.3-1.5-4.3C420.6,314.5,419.2,314,417.4,314 M415.4,325.7c-0.9,0-1.5-0.3-2-0.9s-0.7-1.4-0.7-2.3c0-0.7,0.1-1.4,0.3-2.1c0.2-0.7,0.5-1.4,0.9-2c0.4-0.6,0.9-1.1,1.5-1.5c0.6-0.4,1.2-0.5,1.9-0.5c0.9,0,1.5,0.3,2,0.9c0.5,0.6,0.7,1.4,0.7,2.3c0,0.7-0.1,1.4-0.3,2.1c-0.2,0.7-0.5,1.4-0.9,2c-0.4,0.6-0.9,1.1-1.5,1.5C416.7,325.5,416.1,325.7,415.4,325.7"
          />
          <path
            class="st9"
            d="M432.1,322.1c-0.2-0.4-0.4-0.8-0.6-1c-0.3-0.3-0.5-0.5-0.8-0.7c-0.3-0.2-0.7-0.4-1.1-0.7c-0.6-0.3-1.1-0.7-1.4-0.9c-0.3-0.3-0.4-0.6-0.4-0.9c0-0.2,0.1-0.4,0.2-0.6s0.3-0.3,0.5-0.4s0.4-0.2,0.7-0.3s0.5-0.1,0.7-0.1c0.5,0,0.9,0.1,1.4,0.2c0.5,0.1,0.9,0.3,1.3,0.5l0.1,0.1l0.7-2.5l-0.1,0c-0.5-0.2-1.1-0.4-1.7-0.5c-0.6-0.1-1.2-0.1-1.8-0.1c-0.7,0-1.3,0.1-1.9,0.2s-1.1,0.4-1.6,0.8c-0.5,0.3-0.9,0.8-1.1,1.3c-0.3,0.5-0.4,1.1-0.4,1.8c0,0.5,0.1,0.9,0.2,1.3c0.1,0.4,0.4,0.7,0.6,1c0.3,0.3,0.5,0.5,0.8,0.7c0.3,0.2,0.6,0.4,1,0.6c0.6,0.4,1.1,0.7,1.4,1c0.3,0.3,0.4,0.6,0.4,1.1c0,0.6-0.2,1.1-0.7,1.4c-0.5,0.3-1,0.5-1.7,0.5c-0.5,0-1-0.1-1.5-0.2c-0.5-0.2-1.1-0.4-1.7-0.7l-0.1-0.1l-0.8,2.5l0.1,0c0.6,0.2,1.3,0.4,1.9,0.5c0.6,0.1,1.3,0.2,1.9,0.2c0.8,0,1.5-0.1,2.2-0.3c0.7-0.2,1.3-0.4,1.8-0.8c0.5-0.4,0.9-0.8,1.2-1.4s0.4-1.3,0.4-2.1C432.4,323,432.3,322.5,432.1,322.1"
          />
          <polygon class="st9" points="445.6,310.4 442.7,310.4 441,313.5 442.9,313.5 " />
          <polygon
            class="st9"
            points="440.5,314.3 432.3,327.8 435.6,327.8 441.6,317.2 443.2,327.8 446.2,327.8 443.7,314.3 "
          />
          <path
            class="st9"
            d="M457.3,314.7c-0.5-0.2-1-0.3-1.6-0.4c-0.5,0-1.3-0.1-2.1-0.1h-3.3l-2.8,13.6h2.9l1.2-5.5h0.9c0.5,0,0.8,0.1,1,0.3c0.2,0.3,0.3,0.7,0.4,1.3c0.1,0.3,0.1,0.5,0.1,0.6l0.7,3.2h3.1l-1.3-5.5c-0.1-0.6-0.4-0.9-0.8-1.1c0.9-0.1,1.6-0.4,2.2-0.9c0.8-0.6,1.1-1.5,1.1-2.7c0-0.8-0.2-1.4-0.5-1.8C458.2,315.2,457.8,314.9,457.3,314.7 M455.7,318.9c-0.2,0.3-0.4,0.5-0.7,0.6c-0.3,0.2-0.6,0.3-1,0.3c-0.4,0.1-0.7,0.1-1.1,0.1h-0.8l0.7-3.3h1c0.4,0,0.7,0,0.9,0c0.2,0,0.4,0.1,0.6,0.1c0.2,0.1,0.3,0.2,0.5,0.4c0.1,0.2,0.2,0.4,0.2,0.7C455.9,318.3,455.9,318.6,455.7,318.9"
          />
          <polygon class="st9" points="459.4,327.8 462.4,327.8 465.3,314.3 462.2,314.3 " />
          <path
            class="st9"
            d="M477.6,315.5c-1-1-2.4-1.5-4.2-1.5c-2.2,0-4.1,0.9-5.6,2.5c-0.7,0.8-1.2,1.7-1.6,2.7c-0.4,1-0.5,2.1-0.5,3.1c0,0.8,0.1,1.5,0.4,2.2s0.6,1.3,1.1,1.8c0.5,0.5,1,0.9,1.7,1.2c0.7,0.3,1.4,0.4,2.2,0.4c1.2,0,2.3-0.2,3.2-0.6c1-0.4,1.8-1,2.5-1.7c0.7-0.8,1.3-1.7,1.7-2.8s0.6-2.1,0.6-3.2C479.1,318,478.6,316.5,477.6,315.5 M471.4,325.7c-0.9,0-1.5-0.3-2-0.9c-0.5-0.6-0.7-1.4-0.7-2.3c0-0.7,0.1-1.4,0.3-2.1c0.2-0.7,0.5-1.4,0.9-2c0.4-0.6,0.9-1.1,1.5-1.5c0.6-0.4,1.2-0.5,1.9-0.5c0.9,0,1.5,0.3,2,0.9c0.5,0.6,0.7,1.4,0.7,2.3c0,0.7-0.1,1.4-0.3,2.1c-0.2,0.7-0.5,1.4-0.9,2c-0.4,0.6-0.9,1.1-1.5,1.5C472.8,325.5,472.1,325.7,471.4,325.7"
          />
          <path
            class="st9"
            d="M403.2,307c-0.2-0.1-0.4-0.2-0.6-0.3c-0.2,0-0.5-0.1-0.7-0.1h-1v3.3h1c0.3,0,0.5,0,0.7-0.1s0.4-0.1,0.6-0.3c0.2-0.1,0.3-0.3,0.4-0.5c0.1-0.2,0.1-0.5,0.1-0.8c0-0.3,0-0.6-0.1-0.8C403.5,307.3,403.3,307.1,403.2,307 M402,309.3h-0.2v-1.9h0.2c0.1,0,0.2,0,0.3,0.1s0.2,0.1,0.3,0.2s0.1,0.2,0.2,0.3c0,0.1,0.1,0.3,0.1,0.4c0,0.1,0,0.3-0.1,0.4s-0.1,0.2-0.2,0.3c-0.1,0.1-0.2,0.1-0.3,0.2C402.2,309.2,402.1,309.3,402,309.3"
          />
          <path
            class="st9"
            d="M406.8,308.4c0.1,0,0.2-0.1,0.3-0.2c0.1-0.1,0.2-0.3,0.2-0.5c0-0.2,0-0.4-0.1-0.5c-0.1-0.1-0.2-0.2-0.4-0.3c-0.1-0.1-0.3-0.1-0.5-0.1c-0.2,0-0.4,0-0.6,0h-0.8v3.3h0.8v-1.3h0.1c0.1,0,0.2,0,0.2,0c0,0,0.1,0.1,0.1,0.2l0.4,1h0.9l-0.5-1.4C406.9,308.5,406.8,308.4,406.8,308.4 M406.4,307.7c0,0.1,0,0.1,0,0.2s-0.1,0.1-0.1,0.1s-0.1,0-0.2,0c-0.1,0-0.1,0-0.2,0h-0.1v-0.6h0.1c0.1,0,0.2,0,0.2,0c0.1,0,0.1,0,0.2,0c0,0,0.1,0,0.1,0.1C406.4,307.5,406.4,307.6,406.4,307.7"
          />
          <path
            class="st9"
            d="M411.4,307.1c-0.1-0.1-0.3-0.3-0.5-0.4c-0.2-0.1-0.4-0.1-0.7-0.1c-0.5,0-0.9,0.2-1.2,0.5s-0.4,0.7-0.4,1.2c0,0.5,0.1,0.9,0.4,1.2s0.7,0.5,1.2,0.5c0.3,0,0.5,0,0.7-0.1c0.2-0.1,0.4-0.2,0.5-0.4c0.1-0.1,0.2-0.3,0.3-0.5s0.1-0.4,0.1-0.7c0-0.2,0-0.5-0.1-0.7C411.7,307.4,411.6,307.3,411.4,307.1 M409.9,309.2c-0.1,0-0.2-0.1-0.2-0.2c-0.1-0.1-0.1-0.2-0.1-0.3c0-0.1,0-0.3,0-0.4c0-0.1,0-0.3,0-0.4s0.1-0.2,0.1-0.3c0.1-0.1,0.1-0.2,0.2-0.2s0.2-0.1,0.3-0.1c0.1,0,0.2,0,0.3,0.1s0.2,0.1,0.2,0.2s0.1,0.2,0.1,0.3c0,0.1,0,0.3,0,0.4c0,0.1,0,0.3,0,0.4c0,0.1-0.1,0.2-0.1,0.3c-0.1,0.1-0.1,0.2-0.2,0.2C410.4,309.3,410.1,309.3,409.9,309.2"
          />
          <path
            class="st9"
            d="M414.5,308.7h0.6v0.6c-0.1,0-0.2,0-0.3,0c-0.3,0-0.5-0.1-0.7-0.3c-0.2-0.2-0.3-0.4-0.3-0.7c0-0.3,0.1-0.5,0.3-0.7s0.4-0.3,0.7-0.3c0.1,0,0.3,0,0.4,0c0.1,0,0.3,0.1,0.4,0.1l0.1,0.1l0.1-0.8l-0.1,0c-0.1,0-0.3-0.1-0.4-0.1c-0.1,0-0.3,0-0.5,0c-0.5,0-1,0.1-1.3,0.5c-0.3,0.3-0.5,0.7-0.5,1.3c0,0.3,0,0.5,0.1,0.7c0.1,0.2,0.2,0.4,0.4,0.5c0.3,0.3,0.7,0.4,1.3,0.4c0.2,0,0.3,0,0.5,0c0.2,0,0.3-0.1,0.5-0.1l0.1,0V308h-1.5L414.5,308.7L414.5,308.7z"
          />
          <path
            class="st9"
            d="M418.4,306.7l-1.3,3.3h0.9l0.3-0.7h1.1l0.3,0.7h0.9l-1.3-3.3H418.4z M419.1,308.5h-0.6l0.3-0.9L419.1,308.5z"
          />
          <path
            class="st9"
            d="M423.5,308.4c0.1,0,0.2-0.1,0.3-0.2c0.1-0.1,0.2-0.3,0.2-0.5c0-0.2,0-0.4-0.1-0.5c-0.1-0.1-0.2-0.2-0.4-0.3c-0.1-0.1-0.3-0.1-0.5-0.1c-0.2,0-0.4,0-0.6,0h-0.8v3.3h0.8v-1.3h0.1c0.1,0,0.2,0,0.2,0c0,0,0.1,0.1,0.1,0.2l0.4,1h0.9l-0.5-1.4C423.6,308.5,423.6,308.4,423.5,308.4 M423.1,307.7c0,0.1,0,0.1,0,0.2c0,0-0.1,0.1-0.1,0.1c0,0-0.1,0-0.2,0c-0.1,0-0.1,0-0.2,0h-0.1v-0.6h0.1c0.1,0,0.2,0,0.2,0s0.1,0,0.2,0c0,0,0.1,0,0.1,0.1C423.1,307.5,423.1,307.6,423.1,307.7"
          />
          <rect x="425.4" y="306.7" class="st9" width="0.8" height="3.3" />
          <path
            class="st9"
            d="M429.5,306.7h-0.8l-1.3,3.3h0.9l0.3-0.7h1.1l0.3,0.7h0.9L429.5,306.7z M429.4,308.5h-0.6l0.3-0.9L429.4,308.5z"
          />
          <path
            class="st11"
            d="M494.1,309.9c-3.4-3.4-8.3-4.2-12.4-2.6c-1.3,0.5-2.5,1.2-3.5,2.2c-0.1,0.1-0.2,0.1-0.2,0.2l0,0c-1,1-1.8,2.2-2.3,3.6h0.6c1.5-3.7,5.2-6.2,9.4-6.1c4.8,0.2,8.7,3.9,9.2,8.5h-5.5l1-4.8h-3l-0.9,4.8h-0.3h-3.4l-0.6,2.9h3.6h0.1l-0.9,4.6h3l0.9-4.6h6c-0.8,4.7-5,8.2-9.9,8c-2.1-0.1-4.1-0.9-5.6-2.1v0.7c0.9,0.7,1.9,1.2,3,1.5l-1.3,1.9c4.3,2.1,9.6,1.3,13.2-2.3C498.6,321.8,498.6,314.4,494.1,309.9"
          />
        </g>
      </g>
      <g>
        <rect x="258.4" y="292.5" class="st10" width="120.1" height="51.5" />
        <g>
          <path
            class="st9"
            d="M299.8,303.1h1.1c0.5,0,1,0.1,1.3,0.4s0.4,0.6,0.4,1c0,0.3,0,0.6-0.1,0.9c-0.1,0.3-0.3,0.5-0.4,0.6c-0.2,0.2-0.4,0.3-0.7,0.4s-0.5,0.1-0.9,0.1h-1.4L299.8,303.1z M300.1,305.8h0.4c0.2,0,0.4,0,0.5-0.1c0.1-0.1,0.3-0.2,0.4-0.3s0.2-0.3,0.2-0.4c0-0.1,0.1-0.3,0.1-0.5c0-0.1,0-0.3-0.1-0.4c0-0.1-0.1-0.2-0.2-0.2c-0.1,0-0.2-0.1-0.3-0.1s-0.2,0-0.4,0h-0.2L300.1,305.8z"
          />
          <path
            class="st9"
            d="M304.6,303.1h1.1c0.2,0,0.4,0,0.5,0c0.1,0,0.3,0,0.4,0.1c0.1,0,0.2,0.1,0.3,0.3c0.1,0.1,0.1,0.3,0.1,0.5c0,0.1,0,0.3-0.1,0.4s-0.1,0.2-0.2,0.3s-0.2,0.1-0.3,0.2s-0.2,0.1-0.4,0.1v0c0.1,0,0.1,0,0.2,0.1s0.1,0.1,0.1,0.1s0,0.1,0.1,0.2c0,0.1,0,0.1,0,0.2l0.2,1h-0.9l-0.2-0.9c0-0.1,0-0.2-0.1-0.3s0-0.1-0.1-0.1c0,0-0.1,0-0.1-0.1c0,0-0.1,0-0.3,0h-0.1l-0.3,1.3h-0.9L304.6,303.1z M305.2,304.5h0.3c0.2,0,0.4,0,0.5-0.1s0.2-0.2,0.2-0.3c0-0.1,0-0.2-0.1-0.3c-0.1-0.1-0.2-0.1-0.3-0.1h-0.4L305.2,304.5z"
          />
          <path
            class="st9"
            d="M311.4,305.9c-0.3,0.4-0.8,0.6-1.4,0.6c-0.3,0-0.5,0-0.7-0.1c-0.2-0.1-0.3-0.2-0.5-0.3s-0.2-0.3-0.3-0.4c0-0.2-0.1-0.3-0.1-0.5c0-0.6,0.2-1.2,0.5-1.5s0.8-0.6,1.4-0.6c0.3,0,0.5,0,0.7,0.1c0.2,0.1,0.3,0.2,0.5,0.3s0.2,0.3,0.3,0.4c0,0.2,0.1,0.3,0.1,0.5C311.9,305,311.7,305.6,311.4,305.9 M310.8,303.9c-0.1-0.1-0.3-0.2-0.5-0.2c-0.2,0-0.3,0-0.4,0.1c-0.1,0.1-0.2,0.2-0.3,0.3c-0.1,0.1-0.1,0.3-0.2,0.5c0,0.2-0.1,0.3-0.1,0.5c0,0.2,0,0.4,0.1,0.6c0.1,0.1,0.3,0.2,0.5,0.2c0.2,0,0.3,0,0.4-0.1s0.2-0.2,0.3-0.3c0.1-0.1,0.1-0.3,0.2-0.4c0-0.2,0.1-0.3,0.1-0.5C311,304.2,310.9,304,310.8,303.9"
          />
          <path
            class="st9"
            d="M316.5,303.9c-0.1-0.1-0.3-0.1-0.4-0.1c-0.1,0-0.3,0-0.5,0c-0.2,0-0.4,0-0.6,0.1s-0.3,0.2-0.4,0.3c-0.1,0.1-0.2,0.3-0.2,0.4s-0.1,0.3-0.1,0.5c0,0.3,0.1,0.5,0.2,0.6s0.4,0.2,0.6,0.2c0.1,0,0.2,0,0.4-0.1l0.1-0.7h-0.5l0.1-0.6h1.4l-0.4,1.9c-0.1,0-0.3,0.1-0.6,0.1c-0.2,0-0.4,0-0.6,0c-0.3,0-0.5,0-0.7-0.1c-0.2-0.1-0.4-0.2-0.5-0.3c-0.1-0.1-0.3-0.3-0.3-0.5c-0.1-0.2-0.1-0.4-0.1-0.6c0-0.3,0-0.5,0.1-0.8s0.2-0.4,0.4-0.6c0.2-0.2,0.4-0.3,0.7-0.4c0.3-0.1,0.6-0.1,1-0.1c0.2,0,0.4,0,0.5,0c0.2,0,0.4,0.1,0.6,0.1L316.5,303.9z"
          />
          <path
            class="st9"
            d="M319.7,303.1h1.1l0.5,3.4h-0.9l-0.1-0.7h-1.3l-0.4,0.7h-1L319.7,303.1z M320.2,303.8L320.2,303.8l-0.7,1.3h0.9L320.2,303.8z"
          />
          <path
            class="st9"
            d="M323.6,303.1h1.1c0.2,0,0.4,0,0.5,0c0.1,0,0.3,0,0.4,0.1c0.1,0,0.2,0.1,0.3,0.3c0.1,0.1,0.1,0.3,0.1,0.5c0,0.1,0,0.3-0.1,0.4s-0.1,0.2-0.2,0.3s-0.2,0.1-0.3,0.2s-0.2,0.1-0.4,0.1v0c0.1,0,0.1,0,0.2,0.1s0.1,0.1,0.1,0.1s0,0.1,0.1,0.2c0,0.1,0,0.1,0,0.2l0.2,1h-0.9l-0.2-0.9c0-0.1,0-0.2-0.1-0.3s0-0.1-0.1-0.1c0,0-0.1,0-0.1-0.1c0,0-0.1,0-0.3,0H324l-0.3,1.3h-0.9L323.6,303.1z M324.2,304.5h0.3c0.2,0,0.4,0,0.5-0.1s0.2-0.2,0.2-0.3c0-0.1,0-0.2-0.1-0.3c-0.1-0.1-0.2-0.1-0.3-0.1h-0.4L324.2,304.5z"
          />
          <polygon class="st9" points="328,303.1 328.9,303.1 328.2,306.5 327.3,306.5 " />
          <path
            class="st9"
            d="M331.7,303.1h1.1l0.5,3.4h-0.9l-0.1-0.7h-1.3l-0.4,0.7h-1L331.7,303.1z M332.2,303.8L332.2,303.8l-0.7,1.3h0.9L332.2,303.8z"
          />
          <path
            class="st9"
            d="M337.6,303.8c-0.1,0-0.2-0.1-0.3-0.1c-0.1,0-0.3,0-0.4,0c-0.2,0-0.4,0-0.5,0.1c-0.1,0-0.2,0.1-0.2,0.3c0,0.1,0,0.2,0.1,0.2c0.1,0,0.2,0.1,0.4,0.2c0.1,0,0.2,0.1,0.3,0.1c0.1,0,0.2,0.1,0.2,0.2s0.1,0.2,0.2,0.3s0.1,0.2,0.1,0.4c0,0.2,0,0.4-0.1,0.6c-0.1,0.1-0.2,0.3-0.4,0.4s-0.3,0.1-0.5,0.2s-0.4,0.1-0.6,0.1c-0.2,0-0.3,0-0.5,0s-0.4-0.1-0.5-0.1l0.2-0.7c0.1,0.1,0.2,0.1,0.4,0.1s0.3,0,0.5,0c0.1,0,0.2,0,0.2,0c0.1,0,0.1,0,0.2-0.1c0.1,0,0.1-0.1,0.2-0.1s0.1-0.1,0.1-0.2c0-0.1,0-0.2-0.1-0.2s-0.2-0.1-0.4-0.2c-0.1,0-0.2-0.1-0.3-0.1s-0.2-0.1-0.2-0.1s-0.1-0.1-0.2-0.2c0-0.1-0.1-0.2-0.1-0.3c0-0.2,0-0.4,0.1-0.5c0.1-0.1,0.2-0.3,0.3-0.4c0.1-0.1,0.3-0.1,0.5-0.2s0.4-0.1,0.5-0.1c0.2,0,0.4,0,0.6,0s0.3,0.1,0.4,0.1L337.6,303.8z"
          />
          <polygon
            class="st9"
            points="279.3,309.9 290.4,309.9 289.9,312.2 285.9,312.2 283.3,324.5 280.3,324.5 282.9,312.2 278.8,312.2 "
          />
          <polygon
            class="st9"
            points="289.3,324.5 286.1,324.5 294.8,309.9 298,309.9 300.6,324.5 297.8,324.5 296,312.5 295.9,312.5 "
          />
          <polygon
            class="st9"
            points="305.5,309.9 310.3,309.9 311.2,320.4 311.3,320.4 316.9,309.9 321.7,309.9 318.7,324.5 315.6,324.5 318.3,312.4 318.3,312.4 311.8,324.5 309,324.5 307.9,312.4 307.9,312.4 305.2,324.5 302.5,324.5 "
          />
          <path
            class="st9"
            d="M335,311.3c1,1.1,1.5,2.6,1.5,4.6c0,1.2-0.2,2.4-0.6,3.5c-0.4,1.1-1,2.1-1.8,3c-0.7,0.8-1.6,1.4-2.6,1.8s-2.2,0.6-3.4,0.6c-0.9,0-1.6-0.1-2.4-0.5c-0.7-0.3-1.3-0.7-1.8-1.3c-0.5-0.5-0.9-1.2-1.1-1.9s-0.4-1.5-0.4-2.4c0-1.2,0.2-2.3,0.6-3.4c0.4-1.1,1-2.1,1.7-2.9c1.6-1.8,3.5-2.7,5.9-2.7C332.5,309.6,334,310.2,335,311.3 M328.4,312.6c-0.6,0.4-1.2,1-1.6,1.7c-0.4,0.7-0.8,1.5-1,2.3s-0.3,1.6-0.3,2.3c0,1,0.3,1.9,0.8,2.6c0.5,0.7,1.3,1,2.3,1c0.8,0,1.5-0.2,2.1-0.6c0.6-0.4,1.2-1,1.6-1.7c0.4-0.7,0.8-1.5,1-2.3c0.2-0.8,0.4-1.6,0.4-2.3c0-1-0.3-1.9-0.8-2.6c-0.5-0.7-1.3-1-2.3-1C329.7,311.9,329,312.1,328.4,312.6"
          />
          <polygon class="st9" points="340.4,309.9 343.4,309.9 340.4,324.5 337.4,324.5 " />
          <path
            class="st9"
            d="M356.5,311.3c1,1.1,1.5,2.6,1.5,4.6c0,1.2-0.2,2.4-0.6,3.5c-0.4,1.1-1,2.1-1.8,3c-0.7,0.8-1.6,1.4-2.6,1.8s-2.2,0.6-3.4,0.6c-0.9,0-1.6-0.1-2.4-0.5c-0.7-0.3-1.3-0.7-1.8-1.3c-0.5-0.5-0.9-1.2-1.1-1.9s-0.4-1.5-0.4-2.4c0-1.2,0.2-2.3,0.6-3.4c0.4-1.1,1-2.1,1.7-2.9c1.6-1.8,3.5-2.7,5.9-2.7C354,309.6,355.5,310.2,356.5,311.3 M349.8,312.6c-0.6,0.4-1.2,1-1.6,1.7c-0.4,0.7-0.8,1.5-1,2.3s-0.3,1.6-0.3,2.3c0,1,0.3,1.9,0.8,2.6c0.5,0.7,1.3,1,2.3,1c0.8,0,1.5-0.2,2.1-0.6c0.6-0.4,1.2-1,1.6-1.7c0.4-0.7,0.8-1.5,1-2.3c0.2-0.8,0.4-1.6,0.4-2.3c0-1-0.3-1.9-0.8-2.6c-0.5-0.7-1.3-1-2.3-1C351.2,311.9,350.5,312.1,349.8,312.6"
          />
          <path
            class="st12"
            d="M361.9,330c-10.3-1.5-30.5-2.3-50.6-1.8c-18.3,0.7-35.2,2.5-42.3,5.1c23-4.7,69.6-4.5,90-2.2L361.9,330z"
          />
          <path
            class="st13"
            d="M268.9,331.8c24.2-4.9,74.5-4.5,92.9-1.8l-5.6,2l11.7-2.7C344.5,324.4,284.3,326.2,268.9,331.8"
          />
          <path
            class="st12"
            d="M359.8,331.1c0.7,0.1,1.5,0.2,2.1,0.3l-5.6,2l11.7-2.7c-1.1-0.2-2.2-0.4-3.4-0.6L359.8,331.1z"
          />
        </g>
      </g>
      <g>
        <rect y="293.2" class="st14" width="120.1" height="50.2" />
        <path
          class="st15"
          d="M11.8,328.1c23.6-4.8,72.6-4.4,90.6-1.8l-5.4,1.9l11.4-2.7C85.5,320.9,26.8,322.6,11.8,328.1"
        />
        <path
          class="st16"
          d="M15.6,308.5H19c2.4,0,5.1,0.9,5.1,5c0,2.7-1.3,6.6-7.1,6.6h-3.8L15.6,308.5z M15.9,318.3h1.1c3.3,0,4.8-2,4.8-5.2c0-1.8-1.4-2.8-3.4-2.8h-0.8L15.9,318.3z"
        />
        <path
          class="st16"
          d="M26.9,308.5h2.7c2.1,0,4.5,0,4.5,2.7c0,2-1.5,3.1-3.3,3.1v0c0.6,0,1,0.4,1.1,1.1l1.1,4.7h-2.4l-0.5-2.7c-0.3-1.2-0.2-2.1-1.4-2.1h-0.9l-1,4.8h-2.3L26.9,308.5z M28.1,313.5H29c1.2,0,2.7-0.4,2.7-1.9c0-1.2-1-1.2-2-1.2h-1L28.1,313.5z"
        />
        <path
          class="st16"
          d="M46.1,313.2c0,1.9-0.7,3.7-1.9,5.1c-1.2,1.3-2.9,2-4.8,2c-2.8,0-4.5-2.1-4.5-4.8c0-1.8,0.7-3.6,1.8-5c1.2-1.5,2.8-2.2,4.7-2.2C44.4,308.3,46.1,310.1,46.1,313.2 M37.2,315.6c0,1.5,0.8,2.9,2.4,2.9c2.6,0,4.1-3.2,4.1-5.5c0-1.5-0.8-2.9-2.4-2.9C38.6,310.1,37.2,313.3,37.2,315.6z"
        />
        <path
          class="st16"
          d="M78.1,310.8c-0.7-0.4-1.5-0.6-2.4-0.6c-0.8,0-1.9,0.3-1.9,1.3c0,1.9,3.9,1.7,3.9,5c0,2.8-2.2,3.9-4.7,3.9c-1.1,0-2.2-0.3-3.3-0.6l0.6-2c0.9,0.4,1.8,0.8,2.8,0.8c1.1,0,2.2-0.6,2.2-1.8c0-2.1-3.9-1.8-3.9-4.9c0-2.4,2.1-3.5,4.3-3.5c1,0,2,0.1,3,0.5L78.1,310.8z"
        />
        <polygon
          class="st16"
          points="81.6,308.5 85.4,308.5 86.2,316.9 86.2,316.9 90.7,308.5 94.5,308.5 92.1,320.1 89.6,320.1 91.8,310.5 91.8,310.5 86.6,320.1 84.4,320.1 83.5,310.5 83.5,310.5 81.4,320.1 79.2,320.1 "
        />
        <polygon class="st16" points="97.2,308.5 99.5,308.5 97.1,320.1 94.8,320.1 " />
        <polygon
          class="st16"
          points="102.2,308.5 104.4,308.5 102.4,318.3 106.9,318.3 106.5,320.1 99.8,320.1 "
        />
        <path
          class="st16"
          d="M54.2,310.1c1.2,0,2.3,0.3,3.2,0.8l0.6-2c-1.2-0.5-2.5-0.6-3.8-0.6c-4.1,0-6.8,2.6-6.8,6.9c0,3.6,2.3,5.1,5.6,5.1c1.1,0,2.4-0.2,3.1-0.5l1.3-6.3H55l-0.4,2l0,0l-0.6,2.8c-0.3,0.1-0.6,0.1-1.1,0.1c-2,0-3.2-1.5-3.2-3.4C49.7,312.4,51.4,310.1,54.2,310.1"
        />
        <polygon
          class="st16"
          points="66.6,308.5 64.1,308.5 57.2,320.1 59.7,320.1 61.1,317.5 61.2,317.5 62.1,315.6 62.2,315.6 64.9,310.6 65,310.6 65.7,315.5 65.7,315.5 66,317.5 66,317.5 66.4,320.1 68.7,320.1 "
        />
      </g>
      <g>
        <rect x="129.2" y="293.2" width="120.1" height="50.2" />
        <polygon
          class="st4"
          points="202.9,324 202.9,312.6 204.3,312.6 204.3,322.7 211.8,322.7 211.8,324 "
        />
        <rect x="213.8" y="312.5" class="st4" width="1.4" height="11.5" />
        <polygon
          class="st4"
          points="218.1,324 218.1,312.6 227.1,312.6 227.1,313.9 219.5,313.9 219.5,317.3 224.1,317.3 224.1,318.6 219.5,318.6 219.5,324 "
        />
        <polygon
          class="st4"
          points="228.6,324 228.6,312.6 237.6,312.6 237.6,313.9 230,313.9 230,317.3 234.6,317.3 234.6,318.6 230,318.6 230,322.7 238.1,322.7 238.1,324 "
        />
        <polygon
          class="st9"
          points="140.4,324 140.4,312.6 149.4,312.6 149.4,313.9 141.8,313.9 141.8,317.3 146.4,317.3 146.4,318.6 141.8,318.6 141.8,324 "
        />
        <path
          class="st9"
          d="M163.4,317.7L163.4,317.7h5c0.7,0,1.3-0.2,1.6-0.5c0.4-0.3,0.6-0.8,0.6-1.4c0-0.6-0.2-1.1-0.6-1.4c-0.4-0.3-0.9-0.5-1.6-0.5h-5.1V317.7z M162,324v-11.4h6.6c1.1,0,2,0.3,2.6,0.8c0.6,0.6,0.9,1.3,0.9,2.3c0,0.8-0.3,1.5-0.8,2.1s-1.1,1-2,1.1l2.9,5h-1.6l-2.9-5h-4.4v5H162z"
        />
        <polygon
          class="st9"
          points="174.9,324 174.9,312.6 176.2,312.6 180.8,319.6 185.4,312.6 186.7,312.6 186.7,324 185.3,324 185.3,315.1 180.8,321.9 176.3,315.1 176.3,324 "
        />
        <polygon
          class="st9"
          points="153.6,312.6 154.4,312.6 160,324 158.4,324 154,314.9 149.6,324 148,324 "
        />
        <polygon
          class="st9"
          points="194.4,312.6 195.3,312.6 200.8,324 199.2,324 194.8,314.9 190.4,324 188.8,324 "
        />
      </g>
    </g>
  </g>
</svg>
